# File created by Blade
# Date/Time:  Wed Sep 24 19:42:34 2014
# Frame Rate: 120.000 fps
#------------------------------------------------------
:FULLY-SPECIFIED
:DEGREES
1250
root -4.395311 32.978160 -2.970136 8.003775 12.381350 -1.295520
Spine -15.403423 16.867931 -1.418311
Head 15.403400 -13.481104 13.635935
LeftShoulder -10.286196 19.339868 9.665994
LeftArm 24.948683 38.455971 -68.039246
LeftForeArm 0.482996 0.000000 22.220027
LeftHand -23.675168 -0.000000 -9.080717
LeftHandThumb1 -26.253704 0.000000 33.147579
RightShoulder -23.885176 21.281658 -46.737690
RightArm 88.136952 42.722411 71.152530
RightForeArm 17.175458 -0.000000 93.991983
RightHand -3.477024 0.000000 20.700997
RightHandThumb1 -24.326973 -0.000000 -32.862282
LeftUpLeg -3.295650 -1.659953 5.835380
LeftLeg -2.436277 -0.000000 0.000000
LeftFoot -6.789335 1.884837 -18.339346
LeftToeBase 10.009227 -0.000000 -0.000000
RightUpLeg -2.034580 -15.081065 0.001213
RightLeg 0.995151 -0.000000 -0.000000
RightFoot -6.374377 -7.095116 -13.808947
RightToeBase 0.785381 -0.000000 -0.000000
1251
root -4.399523 32.979794 -2.964361 7.960749 12.252370 -1.291621
Spine -15.352007 16.744782 -1.401807
Head 15.534686 -13.111927 13.984360
LeftShoulder -10.353648 19.378927 9.648583
LeftArm 24.827378 38.356213 -68.102501
LeftForeArm 0.519328 -0.000000 22.256254
LeftHand -23.691457 -0.000000 -9.070575
LeftHandThumb1 -26.253704 0.000000 33.147579
RightShoulder -23.896416 20.872650 -46.636156
RightArm 88.514045 42.723658 70.381278
RightForeArm 17.282568 0.000000 93.418216
RightHand -3.481729 -0.000000 21.741438
RightHandThumb1 -24.326973 -0.000000 -32.862282
LeftUpLeg -3.219249 -1.591434 5.825311
LeftLeg -2.434176 -0.000000 0.000000
LeftFoot -6.795075 1.933528 -18.333684
LeftToeBase 9.990181 -0.000000 -0.000000
RightUpLeg -1.996198 -14.997915 -0.016764
RightLeg 0.997848 -0.000000 -0.000000
RightFoot -6.371901 -7.071111 -13.824112
RightToeBase 0.780547 -0.000000 -0.000000
1252
root -4.404271 32.981165 -2.957261 7.911915 12.084603 -1.294925
Spine -15.298200 16.645879 -1.387895
Head 15.644968 -12.782008 14.307246
LeftShoulder -10.436507 19.413456 9.629958
LeftArm 24.687462 38.238934 -68.178021
LeftForeArm 0.573642 -0.000000 22.309517
LeftHand -23.686346 -0.000000 -9.071016
LeftHandThumb1 -26.253704 0.000000 33.147579
RightShoulder -23.914136 20.418272 -46.519331
RightArm 88.946983 42.707100 69.713103
RightForeArm 17.439847 -0.000000 92.895127
RightHand -3.443807 -0.000000 22.478844
RightHandThumb1 -24.326973 -0.000000 -32.862282
LeftUpLeg -3.120176 -1.507379 5.820031
LeftLeg -2.450888 -0.000000 0.000000
LeftFoot -6.810128 2.000163 -18.351119
LeftToeBase 9.983652 -0.000000 -0.000000
RightUpLeg -1.951134 -14.879894 -0.035395
RightLeg 0.988788 -0.000000 -0.000000
RightFoot -6.359613 -7.020352 -13.857895
RightToeBase 0.742120 -0.000000 -0.000000
1253
root -4.407725 32.982744 -2.951828 7.877498 11.910890 -1.297780
Spine -15.261819 16.572823 -1.384908
Head 15.731874 -12.494542 14.667341
LeftShoulder -10.526411 19.473107 9.608553
LeftArm 24.629604 38.152369 -68.201938
LeftForeArm 0.617875 -0.000000 22.334440
LeftHand -23.705354 0.000000 -9.060109
LeftHandThumb1 -26.253704 0.000000 33.147579
RightShoulder -23.896612 19.968962 -46.365002
RightArm 89.390511 42.747142 69.045299
RightForeArm 17.540584 -0.000000 92.391556
RightHand -3.451139 -0.000000 23.278904
RightHandThumb1 -24.326973 -0.000000 -32.862282
LeftUpLeg -3.038176 -1.396420 5.809235
LeftLeg -2.463279 -0.000000 0.000000
LeftFoot -6.823163 2.049128 -18.377157
LeftToeBase 9.990944 -0.000000 -0.000000
RightUpLeg -1.933639 -14.765393 -0.052603
RightLeg 1.005617 -0.000000 -0.000000
RightFoot -6.371448 -6.976848 -13.876841
RightToeBase 0.792411 -0.000000 -0.000000
1254
root -4.409712 32.983745 -2.948944 7.839939 11.722978 -1.300299
Spine -15.207273 16.510921 -1.375804
Head 15.760224 -12.206573 14.945931
LeftShoulder -10.621742 19.530114 9.576149
LeftArm 24.595166 38.084776 -68.203983
LeftForeArm 0.644811 -0.000000 22.365993
LeftHand -23.720799 -0.000000 -9.042202
LeftHandThumb1 -26.253704 0.000000 33.147579
RightShoulder -23.899198 19.654610 -46.333660
RightArm 89.552592 42.795036 68.277175
RightForeArm 17.722056 -0.000000 92.002389
RightHand -3.540856 -0.000000 24.123886
RightHandThumb1 -24.326973 -0.000000 -32.862282
LeftUpLeg -2.962387 -1.283097 5.792066
LeftLeg -2.457321 -0.000000 0.000000
LeftFoot -6.850997 2.105597 -18.380000
LeftToeBase 10.004180 -0.000000 -0.000000
RightUpLeg -1.918544 -14.627858 -0.076658
RightLeg 1.022310 -0.000000 -0.000000
RightFoot -6.379376 -6.934131 -13.874209
RightToeBase 0.797394 -0.000000 -0.000000
1255
root -4.414849 32.985584 -2.945674 7.813939 11.555446 -1.304497
Spine -15.186390 16.416352 -1.403041
Head 15.788938 -11.935409 15.291940
LeftShoulder -10.738670 19.849292 9.511297
LeftArm 24.868848 37.903544 -68.018790
LeftForeArm 0.737690 -0.000000 22.382277
LeftHand -23.666917 -0.000000 -8.858862
LeftHandThumb1 -26.253704 0.000000 33.147579
RightShoulder -23.860366 19.265037 -46.160233
RightArm 89.872899 42.866505 67.575265
RightForeArm 17.997715 0.000000 91.594201
RightHand -3.592782 -0.000000 24.867020
RightHandThumb1 -24.326973 -0.000000 -32.862282
LeftUpLeg -2.901186 -1.201430 5.788141
LeftLeg -2.456181 -0.000000 0.000000
LeftFoot -6.869154 2.171070 -18.409030
LeftToeBase 9.998528 -0.000000 -0.000000
RightUpLeg -1.911736 -14.527298 -0.085088
RightLeg 1.029708 -0.000000 -0.000000
RightFoot -6.369479 -6.867266 -13.894226
RightToeBase 0.746271 -0.000000 -0.000000
1256
root -4.421808 32.986681 -2.942732 7.792997 11.385219 -1.307611
Spine -15.151629 16.326531 -1.421193
Head 15.783424 -11.653427 15.580079
LeftShoulder -10.778609 19.664279 9.558332
LeftArm 24.516399 37.898369 -68.213338
LeftForeArm 0.728075 -0.000000 22.432782
LeftHand -23.663186 -0.000000 -8.858133
LeftHandThumb1 -26.253704 0.000000 33.147579
RightShoulder -23.850347 18.984737 -46.152764
RightArm 89.941718 42.895534 66.855389
RightForeArm 18.127942 -0.000000 91.314989
RightHand -3.652772 -0.000000 25.515920
RightHandThumb1 -24.326973 -0.000000 -32.862282
LeftUpLeg -2.847138 -1.116591 5.786509
LeftLeg -2.449161 -0.000000 0.000000
LeftFoot -6.903275 2.229799 -18.443609
LeftToeBase 10.068424 -0.000000 -0.000000
RightUpLeg -1.903396 -14.418200 -0.091449
RightLeg 1.024249 -0.000000 -0.000000
RightFoot -6.367038 -6.818947 -13.931125
RightToeBase 0.747815 -0.000000 -0.000000
1257
root -4.429657 32.988112 -2.941135 7.779365 11.204847 -1.313639
Spine -15.137337 16.264411 -1.458282
Head 15.769879 -11.420433 15.868821
LeftShoulder -10.855680 19.681173 9.558525
LeftArm 24.480168 37.874852 -68.191007
LeftForeArm 0.683213 -0.000000 22.456824
LeftHand -23.674261 0.000000 -8.805630
LeftHandThumb1 -26.253704 0.000000 33.147579
RightShoulder -23.828766 18.673204 -46.080366
RightArm 90.055766 42.954956 66.138352
RightForeArm 18.202769 0.000000 91.060390
RightHand -3.758426 0.000000 25.750888
RightHandThumb1 -24.326973 -0.000000 -32.862282
LeftUpLeg -2.802204 -1.015370 5.788812
LeftLeg -2.444059 -0.000000 0.000000
LeftFoot -6.915007 2.287542 -18.470060
LeftToeBase 10.018042 -0.000000 -0.000000
RightUpLeg -1.909742 -14.303914 -0.092564
RightLeg 1.022481 -0.000000 -0.000000
RightFoot -6.358768 -6.753829 -13.939213
RightToeBase 0.748417 -0.000000 -0.000000
1258
root -4.437286 32.989388 -2.940451 7.772853 11.018747 -1.323849
Spine -15.124064 16.202370 -1.500971
Head 15.730858 -11.189550 16.149061
LeftShoulder -10.908050 19.808676 9.543492
LeftArm 24.463530 37.670439 -68.199593
LeftForeArm 0.772213 -0.000000 22.546479
LeftHand -23.704149 -0.000000 -8.781664
LeftHandThumb1 -26.253704 0.000000 33.147579
RightShoulder -23.831663 18.418964 -46.061010
RightArm 90.103589 42.972759 65.489271
RightForeArm 18.427592 0.000000 90.833594
RightHand -3.819037 -0.000000 26.352971
RightHandThumb1 -24.326973 -0.000000 -32.862282
LeftUpLeg -2.766941 -0.907933 5.790948
LeftLeg -2.432834 -0.000000 0.000000
LeftFoot -6.955349 2.357134 -18.473316
LeftToeBase 10.059934 -0.000000 -0.000000
RightUpLeg -1.928804 -14.208028 -0.086413
RightLeg 1.024838 -0.000000 -0.000000
RightFoot -6.355351 -6.675459 -13.972032
RightToeBase 0.723908 -0.000000 -0.000000
1259
root -4.443862 32.990569 -2.941300 7.756937 10.835769 -1.337176
Spine -15.089760 16.124792 -1.527871
Head 15.681984 -10.966070 16.397262
LeftShoulder -11.011580 19.894275 9.503006
LeftArm 24.465473 37.523431 -68.183640
LeftForeArm 0.814039 -0.000000 22.597742
LeftHand -23.722873 -0.000000 -8.716872
LeftHandThumb1 -26.253704 0.000000 33.147579
RightShoulder -23.785960 18.331087 -46.066053
RightArm 89.905159 43.017423 64.611471
RightForeArm 18.486894 -0.000000 90.658839
RightHand -3.841628 -0.000000 26.783821
RightHandThumb1 -24.326973 -0.000000 -32.862282
LeftUpLeg -2.732437 -0.825655 5.795106
LeftLeg -2.406180 -0.000000 0.000000
LeftFoot -6.998067 2.443845 -18.501535
LeftToeBase 10.014903 -0.000000 -0.000000
RightUpLeg -1.948544 -14.103541 -0.082146
RightLeg 1.042967 -0.000000 -0.000000
RightFoot -6.353377 -6.605106 -14.001700
RightToeBase 0.687556 -0.000000 -0.000000
